<svg xmlns:xlink="http://www.w3.org/1999/xlink" xmlns="http://www.w3.org/2000/svg" role="img" height="16" width="16" data-testid="track-icon" viewBox="0 0 16 16" class="Svg-sc-1bi12j5-0 hDgDGI"><path fill="none" d="M16 0v16H0V0z"></path><path d="M14.25 4.162L9.005 1.134l.007 9.372a2.475 2.475 0 00-1.493-.507 2.503 2.503 0 00-2.5 2.5c0 1.379 1.122 2.5 2.5 2.5s2.5-1.121 2.5-2.5l-.013-9.632 3.744 2.162.5-.867zm-6.731 9.836c-.827 0-1.5-.673-1.5-1.5s.673-1.5 1.5-1.5 1.5.673 1.5 1.5-.673 1.5-1.5 1.5z" fill="#B3B3B3"></path></svg>